# xmcd
#
# Track frame offsets:
#	150
#	16833
#	39929
#	60626
#	77844
#	91775
#	111645
#	128709
#	146100
#	163427
#	183699
#	203594
#	220982
#	242817
#	260048
#	277158
#	289925
#
# Disc length: 4131 seconds
#
# Revision: 1
# Processed by: cddbd v1.5PL3 Copyright (c) Steve Scherf et al.
# Submitted via: audiograbber 1.82.01
#
DISCID=0b102111
DTITLE=Zé Renato and Rafael - Amor à primeira vista
DYEAR=2003
DGENRE=Country
TTITLE0=Amor à primeira vista
TTITLE1=Só Jesus
TTITLE2=Manto azul
TTITLE3=Não dá mais pra ficar sem você
TTITLE4=Pizero
TTITLE5=Você faz falta
TTITLE6=Mentira
TTITLE7=Amor tentação
TTITLE8=Fogo de palha
TTITLE9=Alma caipira
TTITLE10=Cheiro do interior
TTITLE11=Volta pra mim
TTITLE12=De volta pra casa
TTITLE13=Vizinha fogosa
TTITLE14=Tentativa
TTITLE15=Na fazenda
TTITLE16=Voltando pra ela
EXTD=
EXTT0=
EXTT1=
EXTT2=terceira colocada no concurso de musica da tv canção nova - maravilhosa
EXTT3=
EXTT4=
EXTT5=
EXTT6=
EXTT7=
EXTT8=
EXTT9=
EXTT10=
EXTT11=
EXTT12=
EXTT13=
EXTT14=
EXTT15=
EXTT16=
PLAYORDER=
